<svg width="78" height="20" viewBox="0 0 78 20" fill="none" xmlns="http://www.w3.org/2000/svg">
	<path d="M0.096 19V17.344C0.544 17.344 0.904 17.216 1.176 16.96C1.448 16.704 1.672 16.368 1.848 15.952C2.04 15.536 2.224 15.088 2.4 14.608L7.08 1.768H8.76L13.872 14.848C13.968 15.088 14.096 15.456 14.256 15.952C14.416 16.432 14.512 16.856 14.544 17.224C14.816 17.192 15.072 17.176 15.312 17.176C15.568 17.16 15.776 17.152 15.936 17.152V19H9.48V17.416C9.928 17.416 10.232 17.328 10.392 17.152C10.568 16.96 10.648 16.704 10.632 16.384C10.616 16.064 10.528 15.704 10.368 15.304L9.888 13.984L4.68 14.08L4.296 15.208C4.216 15.416 4.096 15.728 3.936 16.144C3.792 16.544 3.656 16.88 3.528 17.152C3.784 17.12 4.088 17.104 4.44 17.104C4.808 17.088 5.072 17.08 5.232 17.08V19H0.096ZM5.28 12.28H9.288L8.184 9.28C7.976 8.704 7.792 8.128 7.632 7.552C7.472 6.96 7.352 6.44 7.272 5.992H7.248C7.184 6.264 7.088 6.672 6.96 7.216C6.832 7.76 6.632 8.408 6.36 9.16L5.28 12.28ZM16.8981 17.44C17.3461 17.44 17.6661 17.352 17.8581 17.176C18.0501 17 18.1701 16.752 18.2181 16.432C18.2821 16.096 18.3141 15.72 18.3141 15.304V11.272C18.3141 10.984 18.3221 10.664 18.3381 10.312C18.3541 9.944 18.3781 9.584 18.4101 9.232C18.1541 9.248 17.8501 9.264 17.4981 9.28C17.1621 9.28 16.9061 9.288 16.7301 9.304V7.48H17.6901C18.3141 7.48 18.8821 7.4 19.3941 7.24C19.9221 7.08 20.2661 6.92 20.4261 6.76H21.6021C21.6341 6.92 21.6581 7.224 21.6741 7.672C21.6901 8.104 21.6981 8.488 21.6981 8.824C22.1301 8.296 22.5381 7.872 22.9221 7.552C23.3061 7.232 23.6821 7 24.0501 6.856C24.4341 6.696 24.8181 6.616 25.2021 6.616C25.7621 6.616 26.2501 6.776 26.6661 7.096C27.0821 7.4 27.2901 7.904 27.2901 8.608C27.2901 8.848 27.2341 9.104 27.1221 9.376C27.0101 9.632 26.8341 9.848 26.5941 10.024C26.3541 10.2 26.0261 10.288 25.6101 10.288C25.2901 10.288 24.9621 10.192 24.6261 10C24.2901 9.808 24.0981 9.44 24.0501 8.896C23.7301 8.896 23.4101 9.032 23.0901 9.304C22.7701 9.56 22.4821 9.872 22.2261 10.24C21.9861 10.592 21.8181 10.92 21.7221 11.224V15.136C21.7221 15.36 21.7141 15.68 21.6981 16.096C21.6821 16.496 21.6581 16.88 21.6261 17.248C21.8821 17.216 22.1621 17.2 22.4661 17.2C22.7861 17.184 23.0261 17.176 23.1861 17.176V19H16.8981V17.44ZM33.1813 19.384C32.7013 19.384 32.2373 19.328 31.7893 19.216C31.3573 19.104 30.9573 18.896 30.5893 18.592C30.2373 18.272 29.9573 17.808 29.7493 17.2C29.5413 16.592 29.4373 15.784 29.4373 14.776L29.4853 8.992H27.8533V7C28.3493 6.984 28.8293 6.816 29.2933 6.496C29.7573 6.176 30.1493 5.76 30.4693 5.248C30.8053 4.736 31.0293 4.2 31.1413 3.64H32.9173L32.8933 7H35.9413V8.848L32.8933 8.92L32.8693 14.824C32.8693 15.192 32.9013 15.56 32.9653 15.928C33.0453 16.28 33.1893 16.576 33.3973 16.816C33.6053 17.04 33.9093 17.152 34.3093 17.152C34.5333 17.152 34.8373 17.072 35.2213 16.912C35.6213 16.752 36.0453 16.352 36.4933 15.712L37.6453 16.792C37.2133 17.432 36.7653 17.928 36.3013 18.28C35.8373 18.632 35.3893 18.888 34.9573 19.048C34.5413 19.208 34.1733 19.304 33.8533 19.336C33.5333 19.368 33.3093 19.384 33.1813 19.384ZM38.3434 17.44C38.7914 17.44 39.1114 17.352 39.3034 17.176C39.4954 17 39.6154 16.752 39.6634 16.432C39.7274 16.096 39.7594 15.72 39.7594 15.304V11.32C39.7594 11.032 39.7674 10.704 39.7834 10.336C39.7994 9.952 39.8234 9.584 39.8554 9.232C39.5994 9.248 39.2954 9.264 38.9434 9.28C38.6074 9.28 38.3514 9.288 38.1754 9.304V7.48C38.9114 7.48 39.5354 7.44 40.0474 7.36C40.5594 7.28 40.9594 7.184 41.2474 7.072C41.5514 6.96 41.7594 6.856 41.8714 6.76H43.1674V15.136C43.1674 15.36 43.1594 15.68 43.1434 16.096C43.1274 16.496 43.1034 16.88 43.0714 17.248C43.3274 17.216 43.6074 17.2 43.9114 17.2C44.2314 17.184 44.4714 17.176 44.6314 17.176V19H38.3434V17.44ZM41.3434 4.864C40.7994 4.864 40.3514 4.672 39.9994 4.288C39.6474 3.904 39.4714 3.44 39.4714 2.896C39.4714 2.352 39.6554 1.888 40.0234 1.504C40.3914 1.12 40.8234 0.927999 41.3194 0.927999C41.8314 0.927999 42.2554 1.12 42.5914 1.504C42.9434 1.888 43.1194 2.352 43.1194 2.896C43.1194 3.44 42.9594 3.904 42.6394 4.288C42.3194 4.672 41.8874 4.864 41.3434 4.864ZM51.8589 19.384C50.7869 19.384 49.8029 19.144 48.9069 18.664C48.0109 18.184 47.2909 17.488 46.7469 16.576C46.2189 15.664 45.9549 14.56 45.9549 13.264C45.9549 12.352 46.1069 11.496 46.4109 10.696C46.7149 9.896 47.1389 9.192 47.6829 8.584C48.2429 7.976 48.8989 7.496 49.6509 7.144C50.4189 6.792 51.2669 6.616 52.1949 6.616C53.2189 6.616 54.0669 6.776 54.7389 7.096C55.4269 7.4 55.9389 7.808 56.2749 8.32C56.6269 8.816 56.8029 9.344 56.8029 9.904C56.8029 10.368 56.6589 10.784 56.3709 11.152C56.0989 11.504 55.7069 11.688 55.1949 11.704C54.5869 11.72 54.1629 11.552 53.9229 11.2C53.6829 10.832 53.5629 10.48 53.5629 10.144C53.5629 10 53.5869 9.832 53.6349 9.64C53.6829 9.432 53.7549 9.248 53.8509 9.088C53.7389 8.848 53.5709 8.672 53.3469 8.56C53.1229 8.448 52.8909 8.376 52.6509 8.344C52.4269 8.296 52.2429 8.28 52.0989 8.296C51.3309 8.344 50.6989 8.728 50.2029 9.448C49.7069 10.168 49.4589 11.208 49.4589 12.568C49.4589 13.368 49.5549 14.12 49.7469 14.824C49.9549 15.512 50.2909 16.08 50.7549 16.528C51.2189 16.976 51.8429 17.216 52.6269 17.248C53.2989 17.264 53.9549 17.104 54.5949 16.768C55.2349 16.432 55.7789 15.976 56.2269 15.4L57.3309 16.48C56.7549 17.28 56.1549 17.888 55.5309 18.304C54.9069 18.72 54.2829 19 53.6589 19.144C53.0509 19.304 52.4509 19.384 51.8589 19.384ZM58.2328 17.44C58.6808 17.44 59.0008 17.352 59.1928 17.176C59.4008 17 59.5288 16.752 59.5768 16.432C59.6248 16.096 59.6488 15.72 59.6488 15.304V5.44C59.6488 5.152 59.6568 4.824 59.6728 4.456C59.6888 4.072 59.7128 3.704 59.7448 3.352C59.4888 3.368 59.1848 3.384 58.8328 3.4C58.4968 3.4 58.2408 3.408 58.0648 3.424V1.6C58.8168 1.6 59.4408 1.56 59.9368 1.48C60.4488 1.4 60.8488 1.304 61.1368 1.192C61.4408 1.08 61.6488 0.975999 61.7608 0.879999H63.0568V15.136C63.0568 15.36 63.0488 15.68 63.0328 16.096C63.0168 16.496 62.9928 16.88 62.9608 17.248C63.2328 17.216 63.5208 17.2 63.8248 17.2C64.1288 17.184 64.3608 17.176 64.5208 17.176V19H58.2328V17.44ZM72.7654 19C72.7334 18.776 72.7094 18.592 72.6934 18.448C72.6934 18.288 72.6854 18.104 72.6694 17.896C72.1254 18.44 71.5494 18.824 70.9414 19.048C70.3334 19.272 69.7174 19.384 69.0934 19.384C68.0694 19.384 67.2694 19.08 66.6934 18.472C66.1174 17.864 65.8294 17.104 65.8294 16.192C65.8294 15.424 66.0214 14.768 66.4054 14.224C66.8054 13.68 67.3254 13.24 67.9654 12.904C68.6214 12.552 69.3414 12.288 70.1254 12.112C70.9254 11.92 71.7254 11.808 72.5254 11.776V10.528C72.5254 10.112 72.4694 9.736 72.3574 9.4C72.2614 9.064 72.0854 8.8 71.8294 8.608C71.5894 8.416 71.2454 8.328 70.7974 8.344C70.4934 8.36 70.1974 8.424 69.9094 8.536C69.6214 8.648 69.3734 8.808 69.1654 9.016C69.2934 9.16 69.3734 9.32 69.4054 9.496C69.4374 9.656 69.4534 9.8 69.4534 9.928C69.4534 10.248 69.3254 10.584 69.0694 10.936C68.8134 11.272 68.4054 11.432 67.8454 11.416C67.3654 11.4 66.9974 11.232 66.7414 10.912C66.4854 10.592 66.3574 10.216 66.3574 9.784C66.3574 9.144 66.5814 8.592 67.0294 8.128C67.4934 7.648 68.1094 7.28 68.8774 7.024C69.6454 6.752 70.4934 6.616 71.4214 6.616C72.8294 6.616 73.9174 6.984 74.6854 7.72C75.4694 8.44 75.8614 9.6 75.8614 11.2C75.8614 11.744 75.8614 12.208 75.8614 12.592C75.8614 12.976 75.8534 13.36 75.8374 13.744C75.8374 14.128 75.8374 14.592 75.8374 15.136C75.8374 15.36 75.8294 15.68 75.8134 16.096C75.7974 16.496 75.7734 16.88 75.7414 17.248C76.0134 17.216 76.3014 17.2 76.6054 17.2C76.9094 17.184 77.1414 17.176 77.3014 17.176V19H72.7654ZM72.5014 13.48C72.0534 13.528 71.6294 13.608 71.2294 13.72C70.8294 13.832 70.4774 13.984 70.1734 14.176C69.8854 14.368 69.6534 14.6 69.4774 14.872C69.3174 15.144 69.2374 15.448 69.2374 15.784C69.2534 16.232 69.3974 16.552 69.6694 16.744C69.9414 16.936 70.2534 17.032 70.6054 17.032C70.9734 17.032 71.3174 16.952 71.6374 16.792C71.9574 16.632 72.2454 16.424 72.5014 16.168C72.5014 16.008 72.5014 15.856 72.5014 15.712C72.5014 15.552 72.5014 15.392 72.5014 15.232C72.5014 14.944 72.5014 14.656 72.5014 14.368C72.5014 14.064 72.5014 13.768 72.5014 13.48Z"
	fill="#FFFFFF"/>
</svg>
